<?xml version="1.0" encoding="utf-8"?>
<!-- Generator: Adobe Illustrator 15.0.0, SVG Export Plug-In . SVG Version: 6.00 Build 0)  -->
<!DOCTYPE svg PUBLIC "-//W3C//DTD SVG 1.1//EN" "http://www.w3.org/Graphics/SVG/1.1/DTD/svg11.dtd">
<svg version="1.1" id="Calque_1" xmlns="http://www.w3.org/2000/svg" xmlns:xlink="http://www.w3.org/1999/xlink" x="0px" y="0px"
	 width="264.516px" height="267.742px" viewBox="0 0 264.516 267.742" enable-background="new 0 0 264.516 267.742"
	 xml:space="preserve">
<g opacity="0.8">
	<path fill="#FFFFFF" d="M192.98,136.186c-0.432,0-0.863-0.112-1.25-0.335l-41.244-23.813c-0.773-0.447-1.25-1.272-1.25-2.165
		V62.247c0-0.893,0.477-1.718,1.25-2.165c0.773-0.446,1.727-0.446,2.5,0l41.244,23.812c0.773,0.447,1.25,1.272,1.25,2.165v47.626
		c0,0.893-0.477,1.718-1.25,2.165C193.844,136.074,193.412,136.186,192.98,136.186z M154.236,108.429l36.244,20.927V87.502
		l-36.244-20.926V108.429z"/>
</g>
<g opacity="0.8">
	<path fill="#FFFFFF" d="M69.245,138.375c-0.432,0-0.863-0.112-1.25-0.335c-0.773-0.447-1.25-1.272-1.25-2.165V88.249
		c0-0.893,0.477-1.718,1.25-2.165l41.246-23.813c0.773-0.446,1.727-0.446,2.5,0c0.773,0.447,1.25,1.272,1.25,2.165v47.626
		c0,0.893-0.477,1.718-1.25,2.165L70.495,138.04C70.108,138.262,69.676,138.375,69.245,138.375z M71.745,89.692v41.853
		l36.246-20.926V68.766L71.745,89.692z"/>
</g>
<path fill="#FFFFFF" d="M95.197,99.51"/>
<path fill="#FFFFFF" d="M131.443,78.583"/>
<g opacity="0.8">
	<path fill="#FFFFFF" d="M131.113,212.324c-0.432,0-0.863-0.112-1.25-0.335l-41.246-23.812c-0.773-0.447-1.25-1.272-1.25-2.166
		c0-0.893,0.477-1.718,1.25-2.164l41.246-23.813c0.773-0.446,1.727-0.446,2.5,0l41.245,23.813c0.773,0.446,1.25,1.271,1.25,2.164
		c0,0.894-0.477,1.719-1.25,2.166l-41.245,23.812C131.977,212.211,131.545,212.324,131.113,212.324z M94.868,186.01l36.246,20.927
		l36.245-20.927l-36.245-20.926L94.868,186.01z"/>
</g>
<g opacity="0.8">
	<path fill="#FFFFFF" d="M131.113,127.988c-0.432,0-0.863-0.112-1.25-0.335L88.618,103.84c-0.773-0.447-1.25-1.272-1.25-2.166
		c0-0.893,0.477-1.718,1.25-2.164l41.246-23.813c0.773-0.446,1.727-0.446,2.5,0l41.245,23.813c0.773,0.446,1.25,1.271,1.25,2.164
		c0,0.894-0.477,1.719-1.25,2.166l-41.245,23.812C131.977,127.875,131.545,127.988,131.113,127.988z M94.868,101.674l36.246,20.927
		l36.245-20.927l-36.245-20.926L94.868,101.674z"/>
</g>
<path fill="#FFFFFF" d="M134.563,184.161c-0.432,0-0.863-0.111-1.25-0.335c-0.773-0.446-1.25-1.272-1.25-2.165v-47.626
	c0-0.893,0.477-1.718,1.25-2.165l41.245-23.813c0.773-0.446,1.727-0.446,2.5,0c0.773,0.447,1.25,1.272,1.25,2.165v47.627
	c0,0.893-0.477,1.718-1.25,2.164l-41.245,23.813C135.427,184.049,134.995,184.161,134.563,184.161z M137.063,135.478v41.853
	l36.245-20.926v-41.854L137.063,135.478z"/>
<path fill="#FFFFFF" d="M126.938,184.161c-0.432,0-0.863-0.111-1.25-0.335l-41.245-23.813c-0.773-0.446-1.25-1.271-1.25-2.164
	v-47.627c0-0.893,0.477-1.718,1.25-2.165c0.773-0.446,1.727-0.446,2.5,0l41.245,23.813c0.773,0.447,1.25,1.272,1.25,2.165v47.626
	c0,0.893-0.477,1.719-1.25,2.165C127.802,184.049,127.37,184.161,126.938,184.161z M88.193,156.405l36.245,20.926v-41.853
	l-36.245-20.926V156.405z"/>
</svg>
