<?xml version="1.0" encoding="utf-8"?>
<!-- Generator: Adobe Illustrator 15.0.0, SVG Export Plug-In . SVG Version: 6.00 Build 0)  -->
<!DOCTYPE svg PUBLIC "-//W3C//DTD SVG 1.1//EN" "http://www.w3.org/Graphics/SVG/1.1/DTD/svg11.dtd">
<svg version="1.1" id="Calque_1" xmlns="http://www.w3.org/2000/svg" xmlns:xlink="http://www.w3.org/1999/xlink" x="0px" y="0px"
	 width="110.317px" height="109.523px" viewBox="0 0 110.317 109.523" enable-background="new 0 0 110.317 109.523"
	 xml:space="preserve">
<g>
	<path fill="#FFFFFF" d="M34.526,50.252c-2.535,7.116-10.356,10.835-17.471,8.298C9.939,56.015,6.223,48.194,8.757,41.08
		c2.54-7.118,10.358-10.833,17.471-8.297C33.344,35.313,37.057,43.139,34.526,50.252z"/>
	<path fill="#FFFFFF" d="M91.004,26.099c-1.244,3.5-5.091,5.329-8.589,4.082c-3.505-1.246-5.329-5.097-4.082-8.593
		c1.246-3.499,5.094-5.327,8.589-4.081C90.427,18.75,92.251,22.603,91.004,26.099z"/>
	<g>
		<g>
			<path fill="#FFFFFF" d="M90.717,46.795c-1.141-1.65-2.444-3.185-3.943-4.59l-5.561,3.539l-2.852-1.971l1.349-6.387
				c-1.855-0.884-3.762-1.553-5.701-1.999l-3.048,5.841l-3.445-0.282l-2.036-6.203c-2.006,0.155-4.005,0.535-5.929,1.124
				l0.283,6.574l-3.133,1.486l-4.874-4.363c-1.643,1.125-3.179,2.431-4.57,3.931l3.538,5.571l-1.966,2.849l-6.406-1.349
				c-0.884,1.854-1.545,3.753-1.995,5.696l5.852,3.047l-0.29,3.449l-6.203,2.037c0.159,2.019,0.538,4.004,1.125,5.937l6.588-0.29
				l1.465,3.129l-4.357,4.874c1.131,1.643,2.436,3.184,3.928,4.574l5.572-3.533l2.842,1.966l-1.332,6.397
				c1.837,0.882,3.747,1.541,5.683,2.002l3.053-5.855l3.447,0.281l2.036,6.211c2.017-0.159,4.009-0.537,5.931-1.106l-0.278-6.602
				l3.128-1.481l4.872,4.368c1.636-1.12,3.177-2.441,4.576-3.932l-3.54-5.579l1.973-2.833l6.397,1.342
				c0.886-1.843,1.534-3.76,1.99-5.696l-5.849-3.044l0.295-3.456l6.198-2.039c-0.159-2.012-0.533-4-1.118-5.93l-6.586,0.279
				l-1.483-3.123L90.717,46.795z M81.381,72.107c-5.247,7.59-15.636,9.471-23.225,4.233c-7.587-5.251-9.462-15.651-4.224-23.22
				c5.244-7.592,15.655-9.476,23.223-4.232C84.744,54.136,86.632,64.53,81.381,72.107z"/>
			<path fill="#FFFFFF" d="M55.77,54.579c-4.499,6.511-2.88,15.452,3.631,19.96c6.521,4.512,15.456,2.873,19.959-3.631
				c4.515-6.513,2.89-15.444-3.621-19.967C69.219,46.438,60.288,48.064,55.77,54.579z M74.531,67.561
				c-2.654,3.844-7.932,4.813-11.786,2.147c-3.839-2.674-4.804-7.943-2.136-11.781c2.649-3.858,7.932-4.818,11.781-2.151
				C76.243,58.439,77.199,63.713,74.531,67.561z"/>
		</g>
	</g>
</g>
</svg>
