<?xml version="1.0" encoding="utf-8"?>
<!-- Generator: Adobe Illustrator 15.0.0, SVG Export Plug-In . SVG Version: 6.00 Build 0)  -->
<!DOCTYPE svg PUBLIC "-//W3C//DTD SVG 1.1//EN" "http://www.w3.org/Graphics/SVG/1.1/DTD/svg11.dtd">
<svg version="1.1" id="Calque_1" xmlns="http://www.w3.org/2000/svg" xmlns:xlink="http://www.w3.org/1999/xlink" x="0px" y="0px"
	 width="110.317px" height="109.523px" viewBox="0 0 110.317 109.523" enable-background="new 0 0 110.317 109.523"
	 xml:space="preserve">
<g>
	<rect x="25" y="25" width="60" height="8" fill="#FFFFFF"/>
	<rect x="25" y="38" width="45" height="6" fill="#FFFFFF"/>
	<rect x="25" y="49" width="50" height="6" fill="#FFFFFF"/>
	<rect x="25" y="60" width="38" height="6" fill="#FFFFFF"/>
	<rect x="25" y="71" width="42" height="6" fill="#FFFFFF"/>
	<rect x="25" y="82" width="35" height="6" fill="#FFFFFF"/>
</g>
<g>
	<circle cx="18" cy="29" r="3" fill="#FFFFFF"/>
	<circle cx="18" cy="41" r="3" fill="#FFFFFF"/>
	<circle cx="18" cy="52" r="3" fill="#FFFFFF"/>
	<circle cx="18" cy="63" r="3" fill="#FFFFFF"/>
	<circle cx="18" cy="74" r="3" fill="#FFFFFF"/>
	<circle cx="18" cy="85" r="3" fill="#FFFFFF"/>
</g>
<g>
	<path fill="#FFFFFF" d="M75,35 L95,35 L95,75 L75,75 Z M80,40 L90,40 L90,70 L80,70 Z"/>
	<rect x="77" y="42" width="6" height="4" fill="#FFFFFF"/>
	<rect x="77" y="48" width="8" height="4" fill="#FFFFFF"/>
	<rect x="77" y="54" width="5" height="4" fill="#FFFFFF"/>
	<rect x="77" y="60" width="7" height="4" fill="#FFFFFF"/>
</g>
</svg>