<?xml version="1.0" encoding="utf-8"?>
<!-- Generator: Adobe Illustrator 15.0.0, SVG Export Plug-In . SVG Version: 6.00 Build 0)  -->
<!DOCTYPE svg PUBLIC "-//W3C//DTD SVG 1.1//EN" "http://www.w3.org/Graphics/SVG/1.1/DTD/svg11.dtd">
<svg version="1.1" id="Calque_1" xmlns="http://www.w3.org/2000/svg" xmlns:xlink="http://www.w3.org/1999/xlink" x="0px" y="0px"
	 width="110.317px" height="109.523px" viewBox="0 0 110.317 109.523" enable-background="new 0 0 110.317 109.523"
	 xml:space="preserve">
<path fill-rule="evenodd" clip-rule="evenodd" d="M93.881,50.227l-0.022-0.021l-0.021-0.022c-0.819-0.811-1.834-1.401-2.947-1.703
	l-0.965-0.262V42.17h-24.38l-0.295-0.901c-0.322-0.99-0.877-1.891-1.608-2.63l-0.022-0.021l-0.021-0.022
	c-0.746-0.738-1.654-1.295-2.654-1.616l-0.907-0.292V23.529h-24.68l-0.294-0.902c-0.322-0.991-0.877-1.894-1.61-2.634l-0.022-0.021
	l-0.021-0.022c-1.251-1.237-2.919-1.933-4.681-1.933c-1.763,0-3.43,0.695-4.681,1.933l-0.021,0.022l-0.023,0.021
	c-1.236,1.25-1.933,2.918-1.933,4.681c0,1.762,0.696,3.43,1.933,4.681l0.023,0.021l0.021,0.022c1.251,1.237,2.918,1.934,4.681,1.934
	c1.762,0,3.43-0.696,4.681-1.934l0.021-0.022l0.023-0.021c0.732-0.74,1.287-1.643,1.609-2.634l0.294-0.902H57.8v10.87l-0.906,0.291
	c-1,0.322-1.91,0.879-2.656,1.617l-0.021,0.022l-0.021,0.021c-0.733,0.74-1.288,1.643-1.611,2.634l-0.293,0.902H35.356l-0.294-0.902
	c-0.322-0.991-0.877-1.894-1.61-2.634l-0.022-0.021l-0.021-0.022c-1.251-1.237-2.919-1.933-4.681-1.933
	c-1.763,0-3.43,0.695-4.681,1.933l-0.021,0.022l-0.023,0.021c-1.236,1.25-1.933,2.918-1.933,4.681c0,1.762,0.696,3.43,1.933,4.681
	l0.023,0.021l0.021,0.022c1.251,1.237,2.918,1.934,4.681,1.934c1.762,0,3.43-0.696,4.681-1.934l0.021-0.022L33.453,48
	c0.732-0.74,1.287-1.643,1.609-2.634l0.294-0.902h16.935l0.293,0.902c0.323,0.991,0.878,1.894,1.61,2.634l0.022,0.021l0.021,0.022
	c0.74,0.733,1.643,1.287,2.635,1.61l0.902,0.293v9.921l-0.902,0.295c-0.992,0.322-1.895,0.877-2.635,1.609l-0.021,0.023l-0.021,0.02
	c-0.733,0.742-1.288,1.645-1.611,2.635l-0.293,0.902H35.356l-0.294-0.902c-0.322-0.99-0.877-1.893-1.61-2.635l-0.022-0.02
	l-0.021-0.023c-1.251-1.236-2.919-1.934-4.681-1.934c-1.763,0-3.43,0.697-4.681,1.934l-0.021,0.023l-0.023,0.02
	c-1.236,1.252-1.933,2.92-1.933,4.682s0.696,3.43,1.933,4.68l0.023,0.021l0.021,0.023c1.251,1.236,2.918,1.932,4.681,1.932
	c1.762,0,3.43-0.695,4.681-1.932l0.021-0.023l0.023-0.021c0.732-0.74,1.287-1.643,1.609-2.633l0.294-0.904h16.935l0.293,0.904
	c0.323,0.99,0.878,1.893,1.61,2.633l0.022,0.021l0.021,0.023c0.746,0.738,1.656,1.295,2.656,1.617L57.8,73.13v10.869H35.356
	l-0.294-0.902c-0.322-0.99-0.877-1.893-1.61-2.633l-0.022-0.021l-0.021-0.023c-1.251-1.236-2.919-1.932-4.681-1.932
	c-1.763,0-3.43,0.695-4.681,1.932l-0.021,0.023l-0.023,0.021c-1.236,1.25-1.933,2.918-1.933,4.68s0.696,3.43,1.933,4.682l0.023,0.02
	l0.021,0.023c1.251,1.236,2.918,1.934,4.681,1.934c1.762,0,3.43-0.697,4.681-1.934l0.021-0.023l0.023-0.021
	c0.732-0.74,1.287-1.643,1.609-2.633l0.294-0.902l24.68-0.002V73.13l0.907-0.293c1-0.32,1.908-0.877,2.654-1.615l0.021-0.023
	l0.022-0.021c0.731-0.738,1.286-1.639,1.609-2.629l0.294-0.902h24.38v-6.049l0.965-0.262c1.113-0.301,2.128-0.893,2.947-1.703
	l0.021-0.021l0.022-0.021c1.237-1.25,1.933-2.918,1.933-4.681C95.813,53.146,95.118,51.478,93.881,50.227L93.881,50.227z
	 M63.598,48.043l0.021-0.022L63.642,48c0.733-0.742,1.29-1.646,1.612-2.639l0.293-0.904h22.091v3.906l-0.841,0.321
	c-0.869,0.332-1.66,0.845-2.321,1.499l-0.021,0.022l-0.022,0.021c-1.237,1.251-1.934,2.919-1.934,4.681
	c0,1.763,0.696,3.431,1.934,4.681l0.022,0.021l0.021,0.021c0.661,0.654,1.452,1.168,2.321,1.5l0.841,0.32v3.906H65.546l-0.293-0.904
	c-0.321-0.992-0.877-1.896-1.61-2.637l-0.023-0.021l-0.021-0.023c-0.74-0.732-1.643-1.287-2.633-1.609l-0.903-0.295v-9.921
	l0.903-0.293C61.955,49.331,62.857,48.777,63.598,48.043L63.598,48.043z M31.828,27.762l-0.01,0.01
	c-0.82,0.821-1.932,1.271-3.09,1.271c-1.159,0-2.27-0.449-3.09-1.271l-0.01-0.01c-0.82-0.82-1.27-1.931-1.27-3.089
	c0-1.159,0.449-2.27,1.27-3.09l0.01-0.01c0.82-0.82,1.931-1.271,3.09-1.271c1.158,0,2.27,0.45,3.09,1.271l0.01,0.01
	c0.82,0.82,1.27,1.931,1.27,3.09C33.097,25.832,32.648,26.942,31.828,27.762L31.828,27.762z M31.828,88.233l-0.01,0.01
	c-0.82,0.82-1.932,1.27-3.09,1.27c-1.159,0-2.27-0.449-3.09-1.27l-0.01-0.01c-0.82-0.82-1.27-1.932-1.27-3.09s0.449-2.27,1.27-3.09
	l0.01-0.01c0.82-0.82,1.931-1.27,3.09-1.27c1.158,0,2.27,0.449,3.09,1.27l0.01,0.01c0.82,0.82,1.27,1.932,1.27,3.09
	S32.648,87.413,31.828,88.233L31.828,88.233z M31.828,69.587l-0.01,0.01c-0.82,0.82-1.932,1.27-3.09,1.27
	c-1.159,0-2.27-0.449-3.09-1.27l-0.01-0.01c-0.82-0.82-1.27-1.932-1.27-3.09c0-1.16,0.449-2.27,1.27-3.09l0.01-0.01
	c0.82-0.82,1.931-1.27,3.09-1.27c1.158,0,2.27,0.449,3.09,1.27l0.01,0.01c0.82,0.82,1.27,1.93,1.27,3.09
	C33.097,67.655,32.648,68.767,31.828,69.587L31.828,69.587z M31.828,46.409l-0.01,0.01c-0.82,0.821-1.932,1.271-3.09,1.271
	c-1.159,0-2.27-0.449-3.09-1.271l-0.01-0.01c-0.82-0.82-1.27-1.931-1.27-3.089c0-1.16,0.449-2.27,1.27-3.09l0.01-0.01
	c0.82-0.82,1.931-1.271,3.09-1.271c1.158,0,2.27,0.45,3.09,1.271l0.01,0.01c0.82,0.82,1.27,1.93,1.27,3.09
	C33.097,44.478,32.648,45.588,31.828,46.409L31.828,46.409z M62.017,69.587l-0.009,0.01c-0.82,0.82-1.932,1.27-3.089,1.27
	c-1.159,0-2.27-0.449-3.09-1.27l-0.01-0.01c-0.821-0.82-1.271-1.932-1.271-3.09c0-1.16,0.449-2.27,1.271-3.09l0.01-0.01
	c0.82-0.82,1.931-1.27,3.09-1.27c1.158,0,2.269,0.449,3.089,1.27l0.009,0.01c0.821,0.82,1.271,1.93,1.271,3.09
	C63.287,67.655,62.838,68.767,62.017,69.587L62.017,69.587z M62.017,46.409l-0.009,0.01c-0.82,0.821-1.932,1.271-3.089,1.271
	c-1.159,0-2.27-0.449-3.09-1.271l-0.01-0.01c-0.821-0.82-1.271-1.931-1.271-3.089c0-1.16,0.449-2.27,1.271-3.09l0.01-0.01
	c0.82-0.82,1.931-1.271,3.09-1.271c1.158,0,2.269,0.45,3.089,1.271l0.009,0.01c0.821,0.82,1.271,1.93,1.271,3.09
	C63.287,44.478,62.838,45.588,62.017,46.409L62.017,46.409z M92.256,57.997l-0.01,0.01c-0.82,0.82-1.931,1.271-3.09,1.271
	s-2.269-0.451-3.089-1.271l-0.01-0.01c-0.821-0.82-1.271-1.93-1.271-3.089c0-1.159,0.449-2.269,1.271-3.089l0.01-0.01
	c0.82-0.821,1.93-1.271,3.089-1.271s2.27,0.449,3.09,1.271l0.01,0.01c0.82,0.82,1.271,1.93,1.271,3.089
	C93.526,56.067,93.076,57.177,92.256,57.997L92.256,57.997z"/>
<path fill-rule="evenodd" clip-rule="evenodd" d="M31.828,69.587l-0.01,0.01c-0.82,0.82-1.932,1.27-3.09,1.27
	c-1.159,0-2.27-0.449-3.09-1.27l-0.01-0.01c-0.82-0.82-1.27-1.932-1.27-3.09c0-1.16,0.449-2.27,1.27-3.09l0.01-0.01
	c0.82-0.82,1.931-1.27,3.09-1.27c1.158,0,2.27,0.449,3.09,1.27l0.01,0.01c0.82,0.82,1.27,1.93,1.27,3.09
	C33.097,67.655,32.648,68.767,31.828,69.587L31.828,69.587z"/>
<path fill-rule="evenodd" clip-rule="evenodd" d="M31.828,88.233l-0.01,0.01c-0.82,0.82-1.932,1.27-3.09,1.27
	c-1.159,0-2.27-0.449-3.09-1.27l-0.01-0.01c-0.82-0.82-1.27-1.932-1.27-3.09s0.449-2.27,1.27-3.09l0.01-0.01
	c0.82-0.82,1.931-1.27,3.09-1.27c1.158,0,2.27,0.449,3.09,1.27l0.01,0.01c0.82,0.82,1.27,1.932,1.27,3.09
	S32.648,87.413,31.828,88.233L31.828,88.233z"/>
<path fill-rule="evenodd" clip-rule="evenodd" d="M31.828,46.409l-0.01,0.01c-0.82,0.821-1.932,1.271-3.09,1.271
	c-1.159,0-2.27-0.449-3.09-1.271l-0.01-0.01c-0.82-0.82-1.27-1.931-1.27-3.089c0-1.16,0.449-2.27,1.27-3.09l0.01-0.01
	c0.82-0.82,1.931-1.271,3.09-1.271c1.158,0,2.27,0.45,3.09,1.271l0.01,0.01c0.82,0.82,1.27,1.93,1.27,3.09
	C33.097,44.478,32.648,45.588,31.828,46.409L31.828,46.409z"/>
<path fill-rule="evenodd" clip-rule="evenodd" d="M31.828,27.762l-0.01,0.01c-0.82,0.821-1.932,1.271-3.09,1.271
	c-1.159,0-2.27-0.449-3.09-1.271l-0.01-0.01c-0.82-0.82-1.27-1.931-1.27-3.089c0-1.159,0.449-2.27,1.27-3.09l0.01-0.01
	c0.82-0.82,1.931-1.271,3.09-1.271c1.158,0,2.27,0.45,3.09,1.271l0.01,0.01c0.82,0.82,1.27,1.931,1.27,3.09
	C33.097,25.832,32.648,26.942,31.828,27.762L31.828,27.762z"/>
<path fill-rule="evenodd" clip-rule="evenodd" d="M62.017,46.409l-0.009,0.01c-0.82,0.821-1.932,1.271-3.089,1.271
	c-1.159,0-2.27-0.449-3.09-1.271l-0.01-0.01c-0.821-0.82-1.271-1.931-1.271-3.089c0-1.16,0.449-2.27,1.271-3.09l0.01-0.01
	c0.82-0.82,1.931-1.271,3.09-1.271c1.158,0,2.269,0.45,3.089,1.271l0.009,0.01c0.821,0.82,1.271,1.93,1.271,3.09
	C63.287,44.478,62.838,45.588,62.017,46.409L62.017,46.409z"/>
<path fill-rule="evenodd" clip-rule="evenodd" d="M62.017,69.587l-0.009,0.01c-0.82,0.82-1.932,1.27-3.089,1.27
	c-1.159,0-2.27-0.449-3.09-1.27l-0.01-0.01c-0.821-0.82-1.271-1.932-1.271-3.09c0-1.16,0.449-2.27,1.271-3.09l0.01-0.01
	c0.82-0.82,1.931-1.27,3.09-1.27c1.158,0,2.269,0.449,3.089,1.27l0.009,0.01c0.821,0.82,1.271,1.93,1.271,3.09
	C63.287,67.655,62.838,68.767,62.017,69.587L62.017,69.587z"/>
<path fill-rule="evenodd" clip-rule="evenodd" d="M92.256,57.997l-0.01,0.01c-0.82,0.82-1.931,1.271-3.09,1.271
	s-2.269-0.451-3.089-1.271l-0.01-0.01c-0.821-0.82-1.271-1.93-1.271-3.089c0-1.159,0.449-2.269,1.271-3.089l0.01-0.01
	c0.82-0.821,1.93-1.271,3.089-1.271s2.27,0.449,3.09,1.271l0.01,0.01c0.82,0.82,1.271,1.93,1.271,3.089
	C93.526,56.067,93.076,57.177,92.256,57.997L92.256,57.997z"/>
</svg>
