<?xml version="1.0" encoding="utf-8"?>
<!-- Generator: Adobe Illustrator 15.0.0, SVG Export Plug-In . SVG Version: 6.00 Build 0)  -->
<!DOCTYPE svg PUBLIC "-//W3C//DTD SVG 1.1//EN" "http://www.w3.org/Graphics/SVG/1.1/DTD/svg11.dtd">
<svg version="1.1" id="Calque_1" xmlns="http://www.w3.org/2000/svg" xmlns:xlink="http://www.w3.org/1999/xlink" x="0px" y="0px"
	 width="110.317px" height="109.523px" viewBox="0 0 110.317 109.523" enable-background="new 0 0 110.317 109.523"
	 xml:space="preserve">
<g>
	<path fill="#FFFFFF" d="M63.678,75.452H43.789l-15.561-22.16c-1.781-3.728-2.684-7.729-2.684-11.893
		c0-15.226,12.388-27.613,27.614-27.613s27.614,12.387,27.614,27.613c0,2.569-0.353,5.113-1.051,7.564l-0.081,0.283L70.99,64.449
		l-4.245-2.416l8.356-14.685c0.522-1.929,0.787-3.929,0.787-5.949c0-12.532-10.196-22.729-22.729-22.729S30.43,28.867,30.43,41.399
		c0,3.362,0.714,6.592,2.121,9.605l13.773,19.562h17.354V75.452z"/>
</g>
<g>
	<rect x="45.057" y="80.99" fill="#FFFFFF" width="18.927" height="4.884"/>
</g>
<g>
	<path fill="#FFFFFF" d="M63.763,50.13l-3.222-3.673c0.142-0.128,3.758-3.469,2.588-8.623c-1.164-5.122-9.139-7.314-9.22-7.335
		l1.222-4.729c0.444,0.115,10.925,2.907,12.76,10.981C69.719,44.793,64.006,49.915,63.763,50.13z"/>
</g>
<circle fill="#FFFFFF" cx="54.215" cy="93.769" r="3.969"/>
</svg>
