<?xml version="1.0" encoding="utf-8"?>
<!-- Generator: Adobe Illustrator 15.0.0, SVG Export Plug-In . SVG Version: 6.00 Build 0)  -->
<!DOCTYPE svg PUBLIC "-//W3C//DTD SVG 1.1//EN" "http://www.w3.org/Graphics/SVG/1.1/DTD/svg11.dtd">
<svg version="1.1" id="Calque_1" xmlns="http://www.w3.org/2000/svg" xmlns:xlink="http://www.w3.org/1999/xlink" x="0px" y="0px"
	 width="281.984px" height="118.549px" viewBox="0 0 281.984 118.549" enable-background="new 0 0 281.984 118.549"
	 xml:space="preserve">
<g>
	<g>
		<path fill="#54514E" d="M196.327,77.5v-8.717h1.455l2.695,7.626l2.686-7.626h1.455V77.5h-0.779v-7.914h-0.174l-2.734,7.626h-0.916
			l-2.734-7.626h-0.176V77.5H196.327z"/>
		<path fill="#54514E" d="M206.799,77.5v-8.717h5.23v0.702h-4.453v3.236h3.701v0.689h-3.701v3.399h4.453V77.5H206.799z"/>
		<path fill="#54514E" d="M212.795,69.485v-0.702h6.271v0.702h-2.734V77.5h-0.779v-8.015H212.795z"/>
		<path fill="#54514E" d="M218.928,77.5l2.508-8.717h1.818l2.496,8.717h-0.766l-0.701-2.408h-3.889l-0.689,2.408H218.928z
			 M222,69.46l-1.418,4.942h3.512l-1.416-4.942H222z"/>
		<path fill="#54514E" d="M230.329,77.5h-3.174v-8.717h3.174c2.064,0,3.098,1.413,3.098,4.239
			C233.426,76.008,232.393,77.5,230.329,77.5z M232.624,73.022c0-2.358-0.764-3.537-2.295-3.537h-2.396v7.325h2.396
			C231.86,76.811,232.624,75.548,232.624,73.022z"/>
		<path fill="#54514E" d="M234.292,77.5l2.51-8.717h1.818l2.496,8.717h-0.766l-0.701-2.408h-3.889l-0.689,2.408H234.292z
			 M237.366,69.46l-1.418,4.942h3.512l-1.416-4.942H237.366z"/>
		<path fill="#54514E" d="M240.977,69.485v-0.702h6.271v0.702h-2.734V77.5h-0.777v-8.015H240.977z"/>
		<path fill="#54514E" d="M247.11,77.5l2.51-8.717h1.818l2.496,8.717h-0.766l-0.701-2.408h-3.889l-0.689,2.408H247.11z
			 M250.184,69.46l-1.418,4.942h3.512l-1.416-4.942H250.184z"/>
		<path fill="#54514E" d="M196.327,93.695v-8.717h5.23v0.702h-4.453v3.236h3.699v0.689h-3.699v3.399h4.453v0.689H196.327z"/>
		<path fill="#54514E" d="M206.422,93.695h-3.172v-8.717h3.172c2.066,0,3.098,1.413,3.098,4.239
			C209.52,92.203,208.489,93.695,206.422,93.695z M208.717,89.218c0-2.358-0.764-3.537-2.295-3.537h-2.395v7.325h2.395
			C207.954,93.006,208.717,91.743,208.717,89.218z"/>
		<path fill="#54514E" d="M211.352,93.695v-8.717h0.777v8.717H211.352z"/>
		<path fill="#54514E" d="M213.383,85.681v-0.702h6.271v0.702h-2.734v8.015h-0.777v-8.015H213.383z"/>
		<path fill="#54514E" d="M227.081,89.405c0,1.556-0.244,2.681-0.734,3.374c-0.488,0.694-1.379,1.041-2.672,1.041
			c-1.291,0-2.182-0.354-2.67-1.065c-0.49-0.711-0.734-1.833-0.734-3.368c0-1.534,0.246-2.673,0.74-3.418
			c0.492-0.744,1.379-1.116,2.658-1.116s2.168,0.37,2.666,1.11S227.081,87.851,227.081,89.405z M221.6,92.247
			c0.35,0.581,1.043,0.871,2.074,0.871c1.033,0,1.725-0.284,2.076-0.853s0.527-1.52,0.527-2.854s-0.184-2.31-0.553-2.929
			c-0.367-0.619-1.053-0.929-2.057-0.929c-1.037,0-1.734,0.335-2.094,1.004c-0.193,0.343-0.324,0.736-0.395,1.179
			c-0.072,0.443-0.107,0.991-0.107,1.644C221.073,90.71,221.249,91.666,221.6,92.247z"/>
		<path fill="#54514E" d="M229.688,90.259v3.437h-0.777v-8.717h3.199c0.91,0,1.59,0.207,2.037,0.62
			c0.447,0.414,0.672,1.068,0.672,1.963c0,1.397-0.561,2.245-1.682,2.547l1.795,3.587h-0.865l-1.719-3.437H229.688z M234.016,87.574
			c0-0.652-0.154-1.133-0.465-1.442c-0.309-0.309-0.789-0.464-1.441-0.464h-2.422v3.9h2.422
			C233.381,89.568,234.016,88.904,234.016,87.574z"/>
	</g>
</g>
<rect x="107.197" y="59.117" width="69.67" height="4.437"/>
<rect x="107.197" y="47.808" width="69.67" height="4.437"/>
<rect x="107.197" y="36.499" width="69.67" height="4.436"/>
<rect x="156.891" y="19.979" opacity="0.9" fill="#BE0D1D" width="58.529" height="4.436"/>
<rect x="136.52" y="80.68" width="40.348" height="4.436"/>
<rect x="81.076" y="69.82" width="40.346" height="4.437"/>
<rect x="55.322" y="80.68" width="40.348" height="4.436"/>
<rect x="23.738" y="59.117" width="40.348" height="4.437"/>
<rect x="136.52" y="90.158" width="40.348" height="4.437"/>
</svg>
